<svg id="Ebene_1" data-name="Ebene 1" xmlns="http://www.w3.org/2000/svg" viewBox="0 0 321.51 36.5"><defs><style>.cls-1{fill:#8fb2b6;}.cls-2,.cls-5{fill:#fff;}.cls-2{stroke:#000;}.cls-2,.cls-3,.cls-4{stroke-miterlimit:10;}.cls-3,.cls-4{fill:none;stroke-width:5px;}.cls-3{stroke:#f5c8a3;}.cls-4{stroke:#8fb2b6;}</style></defs><path class="cls-1" d="M-43,33.12" transform="translate(43.87 2.91)"/><path class="cls-1" d="M-40.22,33.59l-3.65-3.42,16.83-18a7.58,7.58,0,0,1,4.88-2.6,7,7,0,0,1,5,1.87c2.55,2.1,6,4.89,6,5l.07,2.16v1.64l-1.44,2.14-1.8-1.59S-18,17.45-20.5,15.19c-.71-.64-1.12-.61-1.26-.6a2.61,2.61,0,0,0-1.48.87l-.1.12Z" transform="translate(43.87 2.91)"/><polygon class="cls-1" points="82.13 32.85 78.6 36.39 49.17 7.1 31.31 25.3 31.31 18.17 49.13 0 82.13 32.85"/><path class="cls-2" d="M-49.13,15.34" transform="translate(43.87 2.91)"/><path class="cls-3" d="M-48.16,15.34" transform="translate(43.87 2.91)"/><path class="cls-4" d="M30.29,15.34" transform="translate(43.87 2.91)"/><path class="cls-5" d="M45.3.62V-1.9h5V27.62h-5V.62Z" transform="translate(43.87 2.91)"/><path class="cls-5" d="M58.77,25.1v2.52h-5V-1.9H57.9l.65,1.51,8.5,19.22L75.5-.39l.65-1.51h4.18V.62l0,24.48v2.52h-5V25.1l0-12.53L69.35,26.11l-.65,1.51H65.39l-.65-1.51-6-13.54Z" transform="translate(43.87 2.91)"/><path class="cls-5" d="M87.39,25.1v2.52h-5V-1.9h4.17l.65,1.51,8.5,19.22L104.12-.39l.65-1.51H109V.62l0,24.48v2.52h-5V25.1l0-12.53L98,26.11l-.65,1.51H94l-.65-1.51-6-13.54Z" transform="translate(43.87 2.91)"/><path class="cls-5" d="M109.53,12.86c0-7.78,6.48-14.72,13.75-14.76s13.64,7.06,13.6,14.76-6.33,14.79-13.64,14.76S109.53,20.6,109.53,12.86Zm5,0c0,5.8,3.63,9.76,8.67,9.72s8.64-3.89,8.6-9.72-3.52-9.68-8.56-9.72S114.57,7.06,114.57,12.86Z" transform="translate(43.87 2.91)"/><path class="cls-1" d="M143.91,15.38V27.62h-5V25.1l0-24.44V-1.86h2.52l10.19,0c6.41,0,9.61,4.54,9.57,8.68s-4.46,8.64-9.57,8.6Zm0-5,7.7,0c3,0,4.57-1.55,4.53-3.56v0c0-2.52-.72-3.56-4.53-3.6h-7.7Z" transform="translate(43.87 2.91)"/><path class="cls-1" d="M163.17.62V-1.9h5V22.58h13.67v5H163.17V.62Z" transform="translate(43.87 2.91)"/><path class="cls-1" d="M185.27,16.5,192.72-.39l.65-1.51h3.31l.65,1.51,7.45,16.89h0v.08l3.31,7.51,1.54,3.53h-5.5l-.65-1.51-2-4.57H188.55l-2,4.57-.65,1.51h-5.5l1.54-3.53,3.24-7.34V16.5Zm14,0L195,6.85l-4.25,9.65Z" transform="translate(43.87 2.91)"/><path class="cls-1" d="M228,18.69l.72-1.26h5.83l-2.23,3.78a11.84,11.84,0,0,1-1.55,2.12h0a12.81,12.81,0,0,1-9.5,4.29c-6.95,0-13-7-13-14.76S214.28-1.86,221.23-1.9a13.26,13.26,0,0,1,9.36,4.25l0,0a15.46,15.46,0,0,1,1.58,2.23l2.09,3.74h-5.76l-.72-1.3a7.8,7.8,0,0,0-1-1.33,7.3,7.3,0,0,0-5.62-2.59c-4.68,0-8,3.92-8,9.72s3.38,9.76,8,9.72A6.93,6.93,0,0,0,226.92,20,14.1,14.1,0,0,0,228,18.69Z" transform="translate(43.87 2.91)"/><path class="cls-1" d="M253.7-1.9h2.52v5H239.66v7.2h12.1v5h-12.1v7.2h16.56v5h-21.6V-1.9H253.7Z" transform="translate(43.87 2.91)"/><path class="cls-1" d="M276.92,6.74V9.26h-5V6.74c0-2.2-1.72-3.56-5-3.6s-5,1.44-5,3.6c0,3.56,15.88,3.64,15.84,12.31,0,4.57-5.36,8.6-10.76,8.57S256,23.62,256,19V16.5h5V19c0,2.08,2.06,3.6,5.8,3.56s5.76-1.48,5.72-3.53c0-3.67-15.8-3.67-15.83-12.31,0-4.61,5-8.6,10.07-8.64S276.92,2.17,276.92,6.74Z" transform="translate(43.87 2.91)"/></svg>