<?xml version="1.0" encoding="utf-8"?>
<!-- Generator: Adobe Illustrator 25.4.1, SVG Export Plug-In . SVG Version: 6.00 Build 0)  -->
<svg version="1.1" id="Ebene_1" xmlns="http://www.w3.org/2000/svg" xmlns:xlink="http://www.w3.org/1999/xlink" x="0px" y="0px"
	 viewBox="0 0 250 250" style="enable-background:new 0 0 250 250;" xml:space="preserve">
<style type="text/css">
	.st0{fill:#172949;}
	.st1{opacity:0.6;fill:#172949;}
</style>
<path class="st0" d="M212.2,190.3c6,6,6,15.8,0,21.8s-15.8,6-21.8,0c-3.2-3.2-4.9-7.8-4.5-12.3v-0.1l-37-30h-48.1l-37,30
	c0.9,8.5-5.3,16.1-13.8,16.9s-16.1-5.3-16.9-13.8c-0.9-8.5,5.3-16.1,13.8-16.9c1-0.1,2-0.1,3,0l30-36.9v-48.3L50,63.8
	c-4.6,0.4-9.2-1.2-12.5-4.5c-6.1-6-6.1-15.8-0.1-21.8c6-6.1,15.8-6.1,21.8-0.1c3.3,3.3,5,7.8,4.5,12.5l37,30.1H149l36.9-29.9
	c-0.4-4.6,1.2-9.2,4.5-12.5c6-6,15.8-6,21.8,0s6,15.8,0,21.8c-3.3,3.2-7.8,4.9-12.4,4.5h-0.1l-30,37.1v48l30,37.1
	C204.4,185.5,208.9,187.1,212.2,190.3z"/>
<path class="st1" d="M97.1,48.5c0,3.7-0.4,7.4-1.3,11L76.3,43.7c-1-5.7-3.7-11-7.8-15c-5.3-5.3-12.4-8.3-19.9-8.3h-0.1
	c-15.6,0.1-28.1,12.8-28.1,28.3c0,7.4,3,14.5,8.2,19.8c4.1,4.2,9.4,6.9,15.1,7.8l15.8,19.6C33.5,102.1,7.3,85.8,1.2,59.7
	S11.3,7.5,37.4,1.4c26.1-6.1,52.2,10.1,58.4,36.2C96.6,41.2,97.1,44.9,97.1,48.5L97.1,48.5z"/>
<path class="st1" d="M97.1,201.4c0,26.8-21.8,48.6-48.6,48.6S0,228.2,0,201.4s21.8-48.6,48.6-48.6c3.7,0,7.4,0.4,11.1,1.3
	l-15.9,19.6c-15.3,2.7-25.6,17.3-22.8,32.7c2.4,13.4,14,23.2,27.6,23.3h0.1c7.5,0,14.7-2.9,19.9-8.2c4.1-4.1,6.9-9.4,7.8-15.1
	l19.5-15.9C96.7,194,97.1,197.7,97.1,201.4z"/>
<path class="st1" d="M250,48.5c0,26.8-21.7,48.6-48.5,48.6c0,0-0.1,0-0.1,0c-3.7,0-7.4-0.4-11-1.3l15.9-19.6
	c13.5-2.3,23.4-14.1,23.3-27.8c0-7.4-2.9-14.5-8.2-19.7c-5.2-5.3-12.4-8.4-19.9-8.4h-0.1c-13.7,0-25.4,9.9-27.8,23.4l-19.5,15.8
	c-0.8-3.6-1.3-7.3-1.3-11c0-26.8,21.7-48.5,48.5-48.5S250,21.7,250,48.5L250,48.5z"/>
<path class="st1" d="M249.9,201.4c0.4,26.8-21,48.9-47.8,49.2s-48.9-21-49.2-47.8c0-0.5,0-0.9,0-1.4c0-3.7,0.4-7.4,1.3-11l19.5,15.9
	c2.3,13.5,14.1,23.3,27.8,23.3h0.1c15.6,0,28.1-12.7,28.1-28.2c0-13.7-9.9-25.4-23.4-27.7l-15.9-19.6c3.6-0.9,7.3-1.3,11-1.3
	C228.2,152.8,249.9,174.5,249.9,201.4C249.9,201.4,249.9,201.4,249.9,201.4z"/>
</svg>
