<svg id="Ebene_1" data-name="Ebene 1" xmlns="http://www.w3.org/2000/svg" viewBox="0 0 314.8 36.5"><defs><style>.cls-1{fill:#8fb2b6;}.cls-2,.cls-5{fill:#fff;}.cls-2{stroke:#000;}.cls-2,.cls-3,.cls-4{stroke-miterlimit:10;}.cls-3,.cls-4{fill:none;stroke-width:5px;}.cls-3{stroke:#f5c8a3;}.cls-4{stroke:#8fb2b6;}</style></defs><path class="cls-1" d="M-43,31.85" transform="translate(43.87 4.18)"/><path class="cls-1" d="M-40.22,32.32l-3.65-3.42,16.83-18a7.58,7.58,0,0,1,4.88-2.6,7,7,0,0,1,5,1.87c2.55,2.1,6,4.89,6,5l.07,2.16V19l-1.44,2.14-1.8-1.59S-18,16.18-20.5,13.92c-.71-.64-1.12-.61-1.26-.6a2.61,2.61,0,0,0-1.48.87l-.1.12Z" transform="translate(43.87 4.18)"/><polygon class="cls-1" points="82.13 32.85 78.6 36.39 49.17 7.1 31.31 25.3 31.31 18.17 49.13 0 82.13 32.85"/><path class="cls-2" d="M-49.13,15.34" transform="translate(43.87 4.18)"/><path class="cls-3" d="M-48.16,15.34" transform="translate(43.87 4.18)"/><path class="cls-4" d="M30.29,15.34" transform="translate(43.87 4.18)"/><path class="cls-5" d="M39.38-.51h4.14a1,1,0,0,1,.7.21,1.14,1.14,0,0,1,.43.68c.07.28.15.58.23.88s.2.77.28,1.17.18.78.29,1.16a.9.9,0,0,1,.08.35,2.68,2.68,0,0,0,0,.35c.11.38.2.77.27,1.15s.16.76.27,1.15a4.8,4.8,0,0,1,.24.94c.06.33.13.66.21,1,.27.91.5,1.82.68,2.75s.38,1.85.63,2.75a7.91,7.91,0,0,1,.31,1.23c.07.41.16.82.26,1.23a8.76,8.76,0,0,1,.25.84,1.42,1.42,0,0,0,.41.67c.06,0,.09,0,.1,0s0,0,.11,0a.62.62,0,0,0,.36-.45c.09-.24.15-.45.21-.61a10.2,10.2,0,0,0,.27-1.09,5.77,5.77,0,0,1,.3-1.08q0-.21.09-.39c0-.13.05-.26.08-.39a7.09,7.09,0,0,0,.31-1.09,8.22,8.22,0,0,1,.26-1.09c0-.11.06-.21.08-.32s.06-.24.09-.37a6.53,6.53,0,0,0,.2-.76,6.57,6.57,0,0,1,.21-.76,2.52,2.52,0,0,0,.08-.49c0-.19.11-.38.16-.58s.11-.38.17-.57a23.28,23.28,0,0,0,.61-2.32c.16-.78.36-1.55.57-2.31a7.29,7.29,0,0,0,.31-1.15c.07-.38.16-.77.27-1.15s.2-.58.29-.84a1,1,0,0,1,.57-.59,2.19,2.19,0,0,1,.66-.09h3.15l.84,0a1.29,1.29,0,0,1,.68.23,1,1,0,0,1,.37.59c0,.26.12.53.2.8.14.5.26,1,.37,1.5s.23,1,.37,1.5a10.3,10.3,0,0,1,.27,1.06c.07.36.16.71.26,1.07s.15.59.21.88a5.08,5.08,0,0,0,.25.88c.3,1,.56,2.05.77,3.1s.48,2.08.78,3.09a7.84,7.84,0,0,1,.31,1.27,6.51,6.51,0,0,0,.31,1.23c.08.28.15.53.2.76a1.78,1.78,0,0,0,.29.64.83.83,0,0,0,.21.12h.16a.21.21,0,0,1,.08-.06.16.16,0,0,0,.08-.06,1.69,1.69,0,0,0,.33-.72c.06-.26.12-.53.21-.8a8.84,8.84,0,0,0,.3-1.31A8.59,8.59,0,0,1,66.77,14a37.15,37.15,0,0,0,.88-3.61c.24-1.2.53-2.41.88-3.61a8.88,8.88,0,0,0,.31-1.31,8.59,8.59,0,0,1,.31-1.31,1.13,1.13,0,0,0,.08-.35,2.68,2.68,0,0,1,0-.35c.11-.38.21-.76.29-1.15s.18-.76.29-1.15L70,.4a1.17,1.17,0,0,1,.35-.62,1.4,1.4,0,0,1,.7-.25c.27,0,.58,0,.94,0h3.14a1.54,1.54,0,0,1,.67.13.63.63,0,0,1,.37.69,4.92,4.92,0,0,1-.16.91,16.88,16.88,0,0,0-.56,2,18.3,18.3,0,0,1-.55,2,3.36,3.36,0,0,0-.12.48,3.36,3.36,0,0,1-.13.47c-.13.46-.26,1-.38,1.45s-.26,1-.39,1.46a1.46,1.46,0,0,0-.11.41,1.23,1.23,0,0,1-.1.41A6.06,6.06,0,0,0,73.39,11a7.14,7.14,0,0,1-.3,1.07,1,1,0,0,0-.09.37.92.92,0,0,1-.08.37A6.72,6.72,0,0,0,72.61,14a6.82,6.82,0,0,1-.3,1.16c-.09.28-.16.54-.23.8s-.14.53-.22.8c-.33,1-.61,2.1-.84,3.16A26.64,26.64,0,0,1,70.13,23c0,.19-.09.37-.12.53s-.07.34-.12.53c-.14.47-.27.95-.39,1.46s-.27,1-.43,1.45-.21.69-.29,1a1,1,0,0,1-.61.65,2.43,2.43,0,0,1-.7.09H64l-.86,0a1.29,1.29,0,0,1-.69-.23,1,1,0,0,1-.33-.51,6,6,0,0,0-.21-.64c-.16-.54-.3-1.08-.41-1.62s-.23-1.07-.37-1.62c-.1-.33-.19-.66-.26-1s-.16-.69-.27-1.05a4.68,4.68,0,0,1-.18-.76,4.58,4.58,0,0,0-.19-.75,17.28,17.28,0,0,1-.53-2c-.14-.7-.3-1.39-.49-2.07a7.81,7.81,0,0,1-.31-1.11c-.07-.36-.16-.72-.27-1.11s-.24-.91-.32-1.35-.2-.88-.33-1.31a4.75,4.75,0,0,1-.19-.62,1.46,1.46,0,0,0-.22-.53,1.08,1.08,0,0,0-.25-.17c-.08,0-.14,0-.16,0a.66.66,0,0,0-.41.5l-.21.69a13,13,0,0,0-.45,1.79c-.11.61-.24,1.22-.41,1.82-.35,1.23-.66,2.46-.92,3.69s-.57,2.46-.92,3.69a9.26,9.26,0,0,0-.31,1.29A8.63,8.63,0,0,1,53.24,25a7.29,7.29,0,0,0-.31,1.15,9.1,9.1,0,0,1-.26,1.15c-.08.27-.16.52-.23.74a.93.93,0,0,1-.43.53,1.37,1.37,0,0,1-.7.17H46.89a3.07,3.07,0,0,0-.5-.11A.77.77,0,0,1,46,28.4a1,1,0,0,1-.41-.68,9.4,9.4,0,0,0-.2-.92q-.21-.66-.39-1.35c-.12-.47-.25-.93-.39-1.4a2.08,2.08,0,0,1-.1-.47,4.13,4.13,0,0,0-.1-.51A10.9,10.9,0,0,1,44,21.68c-.11-.47-.24-.93-.37-1.4a.64.64,0,0,1-.09-.31,1.13,1.13,0,0,0,0-.3,11.3,11.3,0,0,1-.34-1.21c-.1-.43-.22-.84-.35-1.25a.77.77,0,0,1,0-.25.64.64,0,0,0-.09-.29,6.7,6.7,0,0,1-.3-1.17,9.22,9.22,0,0,0-.31-1.2c-.08-.28-.16-.56-.23-.85s-.14-.56-.22-.84-.15-.54-.21-.82a4.45,4.45,0,0,0-.24-.82c-.25-.79-.46-1.59-.64-2.41s-.39-1.63-.63-2.42a3.07,3.07,0,0,1-.13-.5,3.17,3.17,0,0,0-.12-.49,16.91,16.91,0,0,1-.49-1.76c-.14-.6-.3-1.2-.49-1.8-.06-.2-.13-.48-.23-.87a1,1,0,0,1,.06-.86,1.07,1.07,0,0,1,.58-.33.29.29,0,0,1,.16,0A.18.18,0,0,0,39.38-.51Z" transform="translate(43.87 4.18)"/><path class="cls-5" d="M96.66,17.94a1.84,1.84,0,0,1,0,.74.76.76,0,0,1-.29.54,1.3,1.3,0,0,1-.59.22,7.2,7.2,0,0,1-.86.08,7.37,7.37,0,0,1-.94,0l-.85,0H82.58a1.32,1.32,0,0,0-.47.08.86.86,0,0,0-.41.33.94.94,0,0,0-.17.31.8.8,0,0,0,0,.43,2.08,2.08,0,0,1,.1.47,2.12,2.12,0,0,0,.11.47,5.32,5.32,0,0,0,.8,1.62,4.23,4.23,0,0,0,1.29,1.13,1.75,1.75,0,0,0,.67.27,5.41,5.41,0,0,1,.72.18,4.46,4.46,0,0,0,.9.12,3.48,3.48,0,0,0,1,0h.37a6.89,6.89,0,0,0,.75-.18,6.78,6.78,0,0,0,.68-.23,8.69,8.69,0,0,0,.92-.53,2.85,2.85,0,0,0,.76-.66c.14-.19.28-.37.43-.55a1.29,1.29,0,0,1,.56-.39,2,2,0,0,1,1-.18l1.17,0,.51,0a.89.89,0,0,1,.47.06h.41a1.46,1.46,0,0,1,.58.2.41.41,0,0,1,.18.37,1.07,1.07,0,0,1-.06.49,7.74,7.74,0,0,1-.45,1,9,9,0,0,1-.57.9,8.39,8.39,0,0,1-2,2.17,10.81,10.81,0,0,1-2.87,1.4A3.39,3.39,0,0,1,89,29a6.94,6.94,0,0,0-.94.17,1.32,1.32,0,0,1-.35,0,.82.82,0,0,0-.35,0H86.9a1.14,1.14,0,0,1-.47.06L86,29.18a1.81,1.81,0,0,0-.57,0,1.44,1.44,0,0,1-.54,0,1.06,1.06,0,0,0-.45-.08A1.13,1.13,0,0,1,84,29q-.45-.07-.9-.18a3,3,0,0,1-.82-.31l-.84-.31a3.43,3.43,0,0,1-.72-.35,12,12,0,0,1-2.34-1.9,9.56,9.56,0,0,1-1.68-2.52,7.32,7.32,0,0,1-.33-.93,8.31,8.31,0,0,0-.32-1,1.15,1.15,0,0,1,0-.31,1.17,1.17,0,0,0,0-.3,4.51,4.51,0,0,1-.2-1.07c0-.38-.06-.77-.08-1.15,0-.13,0-.29,0-.45a1.34,1.34,0,0,1,0-.45v-.49l.12-1c.11-.46.21-.91.29-1.35a5.33,5.33,0,0,1,.37-1.23,10.74,10.74,0,0,1,6-6,4.89,4.89,0,0,1,1.17-.34c.4-.07.81-.16,1.25-.27a4.49,4.49,0,0,1,.62,0c.19,0,.39,0,.61,0a10.46,10.46,0,0,1,3.59.47A10.65,10.65,0,0,1,92.31,8.8c.25.17.5.35.74.55a5.76,5.76,0,0,1,.66.64.87.87,0,0,0,.33.33c.21.3.42.61.61.92s.4.64.62,1a5.7,5.7,0,0,1,.34.76c.1.26.2.54.31.84a7.08,7.08,0,0,1,.33,1.11c.08.38.18.77.29,1.15a2.77,2.77,0,0,1,.06.72,2.33,2.33,0,0,0,.06.71Zm-6.15-2.42a1,1,0,0,0,.06-1c-.15-.4-.26-.69-.35-.88a4.26,4.26,0,0,0-1.51-1.7,5.17,5.17,0,0,0-2.63-.64.31.31,0,0,1-.28,0,.7.7,0,0,0-.29,0,1.65,1.65,0,0,1-.45.11,1.24,1.24,0,0,0-.45.1,4.36,4.36,0,0,0-2.67,2.25c0,.11-.12.26-.18.43a2.72,2.72,0,0,0-.15.54,1.46,1.46,0,0,0,0,.51.74.74,0,0,0,.27.41,1.67,1.67,0,0,0,.9.2h5.66c.38,0,.79,0,1.21,0A1,1,0,0,0,90.51,15.52Z" transform="translate(43.87 4.18)"/><path class="cls-5" d="M113.31-1.24A13.36,13.36,0,0,1,120.23.23a11.91,11.91,0,0,1,4.35,4,13.08,13.08,0,0,1,1.27,3A3.9,3.9,0,0,1,126,8a.78.78,0,0,1-.17.64.8.8,0,0,1-.57.33c-.25,0-.52,0-.82,0h-2.67l-.84,0a1,1,0,0,1-.63-.23,1.28,1.28,0,0,1-.52-.7,6.41,6.41,0,0,0-.34-.86q-.37-.57-.78-1.08a4.89,4.89,0,0,0-1-.93,7,7,0,0,0-1.88-.86,1.63,1.63,0,0,0-.46-.1,3.06,3.06,0,0,1-.45-.06,1.11,1.11,0,0,0-.36,0,4.89,4.89,0,0,0-1.23,0c-.5,0-.88.09-1.15.14a2.94,2.94,0,0,1-.54.12,1.69,1.69,0,0,0-.49.17,9.35,9.35,0,0,0-1.9,1.06,5.74,5.74,0,0,0-1.46,1.56,6.8,6.8,0,0,0-.9,1.68c-.22.6-.43,1.25-.62,1.93a5.67,5.67,0,0,0-.16.9q0,.45-.12.9v.54a1.31,1.31,0,0,0-.07.53,5.44,5.44,0,0,1,0,.57c0,.47,0,.93,0,1.4a6.08,6.08,0,0,0,.2,1.31,1.06,1.06,0,0,1,0,.29,1.7,1.7,0,0,0,0,.28A12.23,12.23,0,0,0,107.77,21a6.46,6.46,0,0,0,2.83,2.27,7,7,0,0,0,.76.29l.84.25a1.87,1.87,0,0,0,.47,0,.9.9,0,0,1,.43.06,2.17,2.17,0,0,0,.62.08,2.57,2.57,0,0,0,.65-.08,1.2,1.2,0,0,1,.37,0,.92.92,0,0,0,.33,0,.86.86,0,0,1,.35,0,.61.61,0,0,0,.31-.06l1.06-.31a5.17,5.17,0,0,0,.94-.39,5.79,5.79,0,0,0,1.65-1.41,8.25,8.25,0,0,0,1.06-2,4.36,4.36,0,0,0,.23-1.07.79.79,0,0,0-.39-.86,1.15,1.15,0,0,0-.64-.16h-2.85a5,5,0,0,0-.53,0,1.31,1.31,0,0,1-.53-.07h-.37l-.33-.06a.56.56,0,0,1-.29-.1.88.88,0,0,1-.29-.49,5,5,0,0,1-.1-.72c0-.26,0-.53,0-.82s0-.55,0-.8,0-.42,0-.61a1.76,1.76,0,0,1,.11-.5A.84.84,0,0,1,115,13a1.46,1.46,0,0,1,.41-.08h.45a.87.87,0,0,1,.3,0h9.11a1.43,1.43,0,0,1,1.17.37,1.66,1.66,0,0,1,.2.86v12c0,.52,0,1,0,1.5a.9.9,0,0,1-.55.92,1.4,1.4,0,0,1-.6.12h-.67c-.55,0-1,0-1.42-.06a1,1,0,0,1-.84-.63,3.93,3.93,0,0,1-.25-.82,2.25,2.25,0,0,0-.28-.78l-.21-.19a.43.43,0,0,0-.33-.06,1.2,1.2,0,0,0-.55.33,4,4,0,0,1-.47.45q-.41.33-.78.6c-.24.17-.52.36-.82.55a5.07,5.07,0,0,1-1.13.53l-1.21.41a1.51,1.51,0,0,1-.43.11,3,3,0,0,0-.43.06,3.1,3.1,0,0,1-.69.08,3.65,3.65,0,0,0-.74.08,1.36,1.36,0,0,1-.47,0,1.59,1.59,0,0,1-.43-.06h-.42a1.69,1.69,0,0,0-.38,0,2.58,2.58,0,0,1-.39,0h-.33a3.82,3.82,0,0,0-.66-.12,4.67,4.67,0,0,1-.65-.13l-.58-.14q-.28-.06-.57-.15a11.54,11.54,0,0,1-2.17-.86,13.21,13.21,0,0,1-3.94-3,15.48,15.48,0,0,1-2.58-4.33,5.61,5.61,0,0,1-.37-1.14,9.4,9.4,0,0,0-.33-1.15,1.63,1.63,0,0,1,0-.35,1.13,1.13,0,0,0-.08-.35,2,2,0,0,1-.09-.59,2.39,2.39,0,0,0-.08-.64.78.78,0,0,1-.06-.35,1.1,1.1,0,0,0,0-.35v-.73a2,2,0,0,1-.08-.64,1.88,1.88,0,0,1,.08-.63v-.46a2.14,2.14,0,0,0,0-.51,1.19,1.19,0,0,1,.06-.47,3.05,3.05,0,0,0,.08-.74,2.56,2.56,0,0,1,.09-.69c.08-.3.15-.6.2-.89a6.55,6.55,0,0,1,.25-.88c.13-.38.26-.76.39-1.12a8.51,8.51,0,0,1,.43-1.09,9.2,9.2,0,0,1,.57-1.13c.22-.37.44-.72.66-1a14.2,14.2,0,0,1,2.78-2.94,14.37,14.37,0,0,1,3.78-2,4.87,4.87,0,0,1,1-.3L110.89-1a1.22,1.22,0,0,1,.43-.08,1.26,1.26,0,0,0,.43-.08,1.15,1.15,0,0,1,.55,0,1.48,1.48,0,0,0,.55,0,.3.3,0,0,1,.23,0A.44.44,0,0,0,113.31-1.24Z" transform="translate(43.87 4.18)"/><path class="cls-5" d="M152.42,17.29a2.1,2.1,0,0,1,.08.69,2.12,2.12,0,0,1-.08.7v.41a1.85,1.85,0,0,0-.06.66,2.35,2.35,0,0,1-.06.65,4.64,4.64,0,0,0-.13.54c0,.16,0,.34-.08.53s-.2.61-.28.92a5.36,5.36,0,0,1-.33.88,9,9,0,0,1-2.26,3.2,11.89,11.89,0,0,1-3.36,2.05,5.25,5.25,0,0,1-1,.31c-.35.07-.69.14-1.05.23a1.33,1.33,0,0,1-.45.08,2,2,0,0,0-.45,0,1.32,1.32,0,0,0-.27,0l-.26,0a4.13,4.13,0,0,1-.66.06,2.29,2.29,0,0,1-.7-.06h-.41a1.22,1.22,0,0,0-.43,0,1,1,0,0,1-.43-.06,1.15,1.15,0,0,0-.31,0,2.55,2.55,0,0,1-.34,0,6.31,6.31,0,0,0-.83-.21,3.31,3.31,0,0,1-.77-.25c-.33-.1-.64-.21-.93-.32a8.52,8.52,0,0,1-.88-.41,10.9,10.9,0,0,1-2.46-2,10.45,10.45,0,0,1-1.72-2.75,3.26,3.26,0,0,1-.31-.78c-.07-.27-.14-.56-.22-.86a1,1,0,0,1-.09-.37.92.92,0,0,0-.08-.37,3,3,0,0,1-.08-.67,3,3,0,0,0-.08-.68,1.73,1.73,0,0,1,0-.37v-.37a1.76,1.76,0,0,1-.06-.7,2.3,2.3,0,0,1,.1-.69V17a1.54,1.54,0,0,0,0-.43,1,1,0,0,1,.06-.43,1.84,1.84,0,0,0,0-.39,1.18,1.18,0,0,1,.08-.39c.11-.35.21-.7.29-1.05a6.16,6.16,0,0,1,.33-1,10.3,10.3,0,0,1,1.76-2.81,12.7,12.7,0,0,1,2.5-2.07,8.25,8.25,0,0,1,.86-.37c.3-.11.6-.23.91-.37a5.07,5.07,0,0,1,1.1-.28,11,11,0,0,0,1.19-.25,4.59,4.59,0,0,1,.62,0A3.64,3.64,0,0,0,141,7a13.42,13.42,0,0,1,4.12.49A11.12,11.12,0,0,1,148.2,9c.3.21.61.45.92.71a4.85,4.85,0,0,1,.8.84,9.79,9.79,0,0,1,.59.82l.56.86a4.49,4.49,0,0,1,.45,1c.11.34.23.7.37,1.09a4.63,4.63,0,0,1,.2.69l.17.74a1.86,1.86,0,0,1,0,.33,1.24,1.24,0,0,0,0,.33.83.83,0,0,1,0,.45A.76.76,0,0,0,152.42,17.29Zm-5.74,1.47a2.94,2.94,0,0,0,0-.59,3.12,3.12,0,0,0,0-.6v-.32a1.33,1.33,0,0,1-.08-.45,2.89,2.89,0,0,0,0-.45.72.72,0,0,0,0-.25c-.06-.22-.11-.45-.15-.68a3.9,3.9,0,0,0-.18-.67,7.67,7.67,0,0,0-1.07-1.83,4.29,4.29,0,0,0-1.64-1.21l-.49-.14-.53-.14a2.28,2.28,0,0,0-.7-.07c-.25,0-.49,0-.74,0a.41.41,0,0,1-.29.07.52.52,0,0,0-.28,0l-.56.14a1.76,1.76,0,0,0-.47.18,4.29,4.29,0,0,0-1.66,1.3,6.72,6.72,0,0,0-1,1.94,6,6,0,0,0-.19.86c0,.3-.09.61-.14.91a1.84,1.84,0,0,0,0,.41v.41a2.59,2.59,0,0,0-.06.86,4,4,0,0,0,.1.86v.37a5.33,5.33,0,0,1,.12.63,5.19,5.19,0,0,0,.13.64,9.18,9.18,0,0,0,.88,2,4.35,4.35,0,0,0,1.49,1.37,2.59,2.59,0,0,0,.64.33,5.44,5.44,0,0,0,.72.2.55.55,0,0,0,.28,0,1,1,0,0,1,.29,0,2,2,0,0,0,.35.06.82.82,0,0,0,.35,0H142c.22-.05.43-.09.65-.12a2.1,2.1,0,0,0,.62-.16A4.61,4.61,0,0,0,145,23.56a5.93,5.93,0,0,0,1.11-1.72,4.24,4.24,0,0,0,.24-.82c.06-.27.13-.56.21-.86a1.76,1.76,0,0,0,0-.31,1.2,1.2,0,0,1,0-.31v-.39A1.84,1.84,0,0,1,146.68,18.76Z" transform="translate(43.87 4.18)"/><path class="cls-1" d="M158-.47h3.52c.3,0,.59,0,.86,0a.75.75,0,0,1,.62.3,1.38,1.38,0,0,1,.22.74c0,.3,0,.63,0,1V26.1c0,.36,0,.75,0,1.19a1.72,1.72,0,0,1-.18,1,1.21,1.21,0,0,1-.74.45,1.54,1.54,0,0,1-.61,0,4.87,4.87,0,0,0-.66,0h-2.42c-.3,0-.58,0-.84,0a1.12,1.12,0,0,1-.63-.25,1,1,0,0,1-.25-.62,7.88,7.88,0,0,1,0-.86V2.45c0-.39,0-.84,0-1.36a2.08,2.08,0,0,1,.18-1.1,1.17,1.17,0,0,1,.54-.41l.22,0Z" transform="translate(43.87 4.18)"/><path class="cls-1" d="M170.21-.51h6.71a1.65,1.65,0,0,1,1,.29,1.14,1.14,0,0,1,.41.6c.08.26.17.51.25.75.16.44.32.88.47,1.34s.31.91.47,1.37c.63,1.72,1.22,3.47,1.79,5.25s1.16,3.54,1.82,5.29a15.07,15.07,0,0,1,.57,1.68c.17.57.36,1.13.58,1.68.05.14.11.27.16.41a.71.71,0,0,0,.29.33l.16.08c.06,0,.11,0,.17,0a.66.66,0,0,0,.45-.49c.08-.28.16-.52.24-.74.22-.63.42-1.25.6-1.87s.37-1.23.59-1.86c.55-1.67,1.1-3.34,1.64-5s1.1-3.36,1.64-5.06c.14-.44.28-.87.41-1.29s.28-.85.41-1.29l.25-.66a1,1,0,0,1,.45-.53.93.93,0,0,1,.64-.21h7.05a.92.92,0,0,1,.59.17,1,1,0,0,1,.45.92V26.92c0,.3,0,.6,0,.88a.84.84,0,0,1-.26.64,1.06,1.06,0,0,1-.62.23l-.82,0h-3.07l-.56-.13a.58.58,0,0,1-.39-.28.85.85,0,0,1-.16-.54V14.42c0-.38,0-.75,0-1.09v-1c0-.22,0-.45,0-.68a2.57,2.57,0,0,0-.06-.68,2,2,0,0,1-.09-.61c0-.22-.08-.36-.24-.41a.15.15,0,0,0-.19,0,.69.69,0,0,1-.1.12,1.36,1.36,0,0,0-.27.39c-.06.15-.12.3-.18.43-.16.41-.32.84-.47,1.27s-.31.88-.47,1.31c-.06.17-.1.33-.15.5a2.43,2.43,0,0,1-.18.49c-.14.35-.26.71-.37,1.06s-.23.72-.37,1.07a.5.5,0,0,0-.08.27.5.5,0,0,1-.08.26,5.13,5.13,0,0,0-.27.78,3.72,3.72,0,0,1-.31.82,5.1,5.1,0,0,0-.26.78,6,6,0,0,1-.27.82c-.33.79-.61,1.59-.86,2.4s-.52,1.61-.82,2.4a.38.38,0,0,0-.08.24.46.46,0,0,1-.08.25,5.33,5.33,0,0,0-.33.92,5.15,5.15,0,0,1-.33.93l-.23.53a1,1,0,0,1-.3.41.77.77,0,0,1-.41.18,3.31,3.31,0,0,0-.5.11h-.94c-.19,0-.42,0-.67,0l-.78,0c-.26,0-.5,0-.72,0a1.08,1.08,0,0,1-.49-.17,1.06,1.06,0,0,1-.45-.47c-.09-.18-.18-.39-.29-.63a9.28,9.28,0,0,1-.35-1,8.44,8.44,0,0,0-.35-1l-.12-.37a9.94,9.94,0,0,1-.37-1.05,9,9,0,0,0-.37-1,1.31,1.31,0,0,1-.06-.23c0-.07,0-.14-.06-.23a3.51,3.51,0,0,1-.33-.77,8,8,0,0,0-.29-.82l-.06-.21a.52.52,0,0,0-.06-.2,7.13,7.13,0,0,1-.27-.82,4.26,4.26,0,0,0-.3-.82c-.22-.55-.43-1.12-.62-1.73s-.4-1.19-.61-1.76-.48-1.38-.7-2.09a17.34,17.34,0,0,0-.78-2,4.59,4.59,0,0,0-.45-.94,1.14,1.14,0,0,0-.17-.15c-.05,0-.12,0-.2,0a.45.45,0,0,0-.21.41,1.89,1.89,0,0,1-.08.58,1.94,1.94,0,0,0-.06.59c0,.21,0,.42,0,.64v.9c0,.3,0,.6,0,.9V27.74a.85.85,0,0,1-.16.54.83.83,0,0,1-.62.36,1.73,1.73,0,0,1-.61.07c-.22,0-.44,0-.66,0h-2.13l-.82,0a1.06,1.06,0,0,1-.62-.23.89.89,0,0,1-.28-.64,8.38,8.38,0,0,1,0-.88V1.05a4.26,4.26,0,0,1,0-.63,1.28,1.28,0,0,1,.12-.48,1,1,0,0,1,.66-.41.29.29,0,0,1,.16,0A.18.18,0,0,0,170.21-.51Z" transform="translate(43.87 4.18)"/><path class="cls-1" d="M207.4-.51h6.7a1.68,1.68,0,0,1,1.05.29,1.14,1.14,0,0,1,.41.6c.08.26.16.51.25.75.16.44.32.88.47,1.34s.3.91.47,1.37q.94,2.58,1.78,5.25c.56,1.77,1.17,3.54,1.83,5.29a17.44,17.44,0,0,1,.57,1.68c.16.57.36,1.13.57,1.68l.17.41a.66.66,0,0,0,.29.33l.16.08a.13.13,0,0,0,.16,0,.65.65,0,0,0,.45-.49c.09-.28.17-.52.25-.74.22-.63.42-1.25.59-1.87s.38-1.23.6-1.86c.55-1.67,1.09-3.34,1.64-5s1.09-3.36,1.64-5.06c.14-.44.27-.87.41-1.29s.27-.85.41-1.29l.25-.66A1,1,0,0,1,229-.3a.92.92,0,0,1,.63-.21h7.05a1,1,0,0,1,.6.17,1,1,0,0,1,.45.92V26.92c0,.3,0,.6,0,.88a.85.85,0,0,1-.27.64,1,1,0,0,1-.61.23l-.82,0H232.9l-.55-.13a.58.58,0,0,1-.39-.28.85.85,0,0,1-.16-.54V14.42c0-.38-.05-.75-.05-1.09v-1c0-.22,0-.45,0-.68a1.94,1.94,0,0,0-.06-.68,2.37,2.37,0,0,1-.08-.61c0-.22-.08-.36-.24-.41s-.15,0-.19,0a.69.69,0,0,1-.1.12,1.36,1.36,0,0,0-.27.39c-.07.15-.13.3-.18.43-.17.41-.32.84-.47,1.27s-.31.88-.48,1.31c0,.17-.1.33-.14.5a2.43,2.43,0,0,1-.18.49c-.14.35-.26.71-.37,1.06s-.24.72-.37,1.07a.43.43,0,0,0-.08.27.43.43,0,0,1-.09.26,5.1,5.1,0,0,0-.26.78,3.72,3.72,0,0,1-.31.82,5.13,5.13,0,0,0-.27.78,6,6,0,0,1-.26.82,23.7,23.7,0,0,0-.86,2.4c-.25.81-.52,1.61-.82,2.4a.4.4,0,0,0-.09.24.39.39,0,0,1-.08.25,7.77,7.77,0,0,0-.33.92,6,6,0,0,1-.32.93c-.09.19-.16.36-.23.53a1,1,0,0,1-.31.41.72.72,0,0,1-.41.18,3.22,3.22,0,0,0-.49.11h-.94c-.19,0-.42,0-.68,0l-.78,0c-.26,0-.5,0-.72,0a1.12,1.12,0,0,1-.49-.17,1.06,1.06,0,0,1-.45-.47c-.08-.18-.18-.39-.28-.63a7.55,7.55,0,0,1-.35-1c-.1-.34-.22-.68-.35-1l-.12-.37A9.94,9.94,0,0,1,217.9,24c-.11-.37-.24-.72-.37-1a1.31,1.31,0,0,1-.06-.23l-.07-.23a4,4,0,0,1-.32-.77c-.09-.28-.18-.55-.29-.82a.65.65,0,0,1-.06-.21,1.67,1.67,0,0,0-.06-.2,7.13,7.13,0,0,1-.27-.82,3.72,3.72,0,0,0-.31-.82c-.22-.55-.42-1.12-.61-1.73s-.4-1.19-.62-1.76-.48-1.38-.69-2.09a17.34,17.34,0,0,0-.78-2,4.12,4.12,0,0,0-.46-.94.75.75,0,0,0-.16-.15c-.05,0-.12,0-.2,0a.45.45,0,0,0-.21.41,2.25,2.25,0,0,1-.08.58,1.47,1.47,0,0,0-.06.59c0,.21,0,.42,0,.64v.9c0,.3,0,.6,0,.9V27.74a.85.85,0,0,1-.17.54.8.8,0,0,1-.61.36,1.79,1.79,0,0,1-.62.07c-.22,0-.43,0-.65,0H208l-.82,0a1,1,0,0,1-.62-.23.94.94,0,0,1-.29-.64c0-.28,0-.58,0-.88V1.05a6.26,6.26,0,0,1,0-.63,1.48,1.48,0,0,1,.13-.48,1,1,0,0,1,.65-.41.33.33,0,0,1,.17,0A.18.18,0,0,0,207.4-.51Z" transform="translate(43.87 4.18)"/><path class="cls-1" d="M270.83,13.11a3.37,3.37,0,0,1,.1.84,3,3,0,0,1-.06.84v.53a4,4,0,0,0-.08.86,4.58,4.58,0,0,1-.09.9c-.05.19-.09.39-.12.58a5.78,5.78,0,0,1-.12.57q-.21.73-.39,1.44A9.38,9.38,0,0,1,269.6,21a13.79,13.79,0,0,1-3.32,4.78,14.4,14.4,0,0,1-5.17,2.93,5,5,0,0,1-.9.24l-.9.17a1.26,1.26,0,0,1-.43.08,2,2,0,0,0-.43,0l-1.36.12a1.88,1.88,0,0,1-.57,0,2.15,2.15,0,0,1-.53-.06,1.31,1.31,0,0,0-.39,0,1,1,0,0,1-.39,0h-.45a3.79,3.79,0,0,0-.62-.1,4.83,4.83,0,0,1-.61-.1q-.33-.09-.66-.15l-.66-.14-.92-.33c-.31-.11-.62-.23-.92-.37a12.51,12.51,0,0,1-4.16-2.85A14.21,14.21,0,0,1,243.44,21a9,9,0,0,1-.41-1.21c-.11-.42-.23-.85-.37-1.29a1.07,1.07,0,0,1-.08-.35,1.76,1.76,0,0,0,0-.31,3.87,3.87,0,0,1-.13-.59,3.78,3.78,0,0,0-.12-.64,1.28,1.28,0,0,1,0-.39.7.7,0,0,0-.06-.35,1.46,1.46,0,0,1,0-.51,1.46,1.46,0,0,0,0-.51,1.74,1.74,0,0,1-.08-.64,1.68,1.68,0,0,1,.08-.63.86.86,0,0,0,0-.39.86.86,0,0,1,0-.39v-.25a1.75,1.75,0,0,0,.06-.55,1.43,1.43,0,0,1,.06-.51,1.06,1.06,0,0,0,.08-.43,1,1,0,0,1,.09-.43c.13-.47.24-.93.32-1.38a9.07,9.07,0,0,1,.37-1.33c.22-.46.43-.93.62-1.39a6.93,6.93,0,0,1,.7-1.32A13.57,13.57,0,0,1,247.33,2a15.49,15.49,0,0,1,3.9-2.25,6.46,6.46,0,0,1,1.13-.33c.39-.08.78-.18,1.17-.29a1.09,1.09,0,0,1,.39-.08,1.84,1.84,0,0,0,.39,0l1.22-.12a.3.3,0,0,1,.23,0,.3.3,0,0,0,.23,0,15.18,15.18,0,0,1,5,.59,13.8,13.8,0,0,1,3.81,1.87,12.48,12.48,0,0,1,1.11.84,5.29,5.29,0,0,1,.94,1l.41.43c.14.15.26.3.37.43.3.44.6.88.9,1.34a8.74,8.74,0,0,1,.78,1.45c.17.38.31.75.43,1.11s.25.74.39,1.15.15.55.21.84.12.58.2.88a1.79,1.79,0,0,1,.08.55,1.44,1.44,0,0,0,.09.51,1.51,1.51,0,0,1,.06.52,1.45,1.45,0,0,0,0,.47Zm-6.36,1.72a1.58,1.58,0,0,0,.09-.6,1.52,1.52,0,0,0-.09-.59v-.7a.83.83,0,0,1,0-.31.49.49,0,0,0-.06-.3,3.69,3.69,0,0,1-.1-.64,3.83,3.83,0,0,0-.1-.59,1.29,1.29,0,0,0-.09-.45l-.24-.91a5.45,5.45,0,0,0-.33-.9,8.29,8.29,0,0,0-2.6-3.38,7.72,7.72,0,0,0-4.74-1.29.28.28,0,0,1-.18,0,.31.31,0,0,0-.19,0,.92.92,0,0,1-.33,0,.87.87,0,0,0-.37.06l-.88.18a5,5,0,0,0-.8.27,6.7,6.7,0,0,0-2.72,2.05A10.8,10.8,0,0,0,249.1,10a7.31,7.31,0,0,0-.19.88,7.24,7.24,0,0,1-.18.88,1.15,1.15,0,0,0,0,.31,1.76,1.76,0,0,1,0,.31.75.75,0,0,0,0,.45,1.69,1.69,0,0,1,0,.45,2.6,2.6,0,0,0-.11.76,2.38,2.38,0,0,0,.06.76v.45a1.29,1.29,0,0,1,.05.35,1.27,1.27,0,0,0,0,.34,1.51,1.51,0,0,0,0,.31,3,3,0,0,1,0,.31,7.17,7.17,0,0,1,.18.9,3.52,3.52,0,0,0,.23.86,13.92,13.92,0,0,0,1.1,2.44,5.83,5.83,0,0,0,1.65,1.83,1.8,1.8,0,0,0,.42.32l.48.25a4.21,4.21,0,0,0,1,.45l1.09.33a.89.89,0,0,0,.39.06,1.31,1.31,0,0,1,.39,0,1.36,1.36,0,0,0,.49.08h.86a1.59,1.59,0,0,1,.37,0,.64.64,0,0,0,.37-.06l.82-.14a3,3,0,0,0,.78-.23A7.2,7.2,0,0,0,262,21.8a9.32,9.32,0,0,0,1.7-2.87,4.25,4.25,0,0,0,.31-1,10.3,10.3,0,0,1,.27-1.06l.12-1a1.27,1.27,0,0,0,0-.34v-.72Z" transform="translate(43.87 4.18)"/></svg>